<svg xmlns="http://www.w3.org/2000/svg" viewBox="0 0 68 24" fill="#cf2528"><path d="M0 21.192c6.017 3.451 18.802 4.424 18.846-6.017 0-5.751-9.335-5.663-9.335-8.007 0-2.831 5.928.265 6.503.708.796-1.991 1.637-3.982 2.477-5.972-5.84-3.141-17.253-3.229-17.253 6.238 0 5.707 8.892 5.397 8.892 7.875 0 3.406-7.123-.929-7.521-1.194a384.401 384.401 0 0 1-2.61 6.37zm42.382 1.946h8.052L46.806.355h-8.45l-3.274 12.299h-.133L31.852.355h-8.45l-3.893 22.783h8.096l1.327-13.183 3.628 13.183h4.866l3.628-13.183 1.327 13.183zm10.307 0v.044h15.44v-6.194h-7.388v-2.389h6.547v-5.84h-6.547V6.547h7.211V.353H52.689v22.783z"></path></svg>