<svg xmlns="http://www.w3.org/2000/svg" viewBox="0 0 512 512">
  <defs>
    <linearGradient id="goldGradient" x1="0%" y1="0%" x2="100%" y2="100%">
      <stop offset="0%" style="stop-color:#D4BC7D"/>
      <stop offset="50%" style="stop-color:#C9A962"/>
      <stop offset="100%" style="stop-color:#B8954A"/>
    </linearGradient>
  </defs>
  
  <!-- Background -->
  <rect width="512" height="512" fill="#1A1A1A"/>
  
  <!-- Renaissance Ornament -->
  <g fill="url(#goldGradient)">
    <!-- Central diamond -->
    <path d="M256 80 L336 256 L256 432 L176 256 Z" fill="none" stroke="url(#goldGradient)" stroke-width="8"/>
    
    <!-- Inner diamond -->
    <path d="M256 140 L306 256 L256 372 L206 256 Z" fill="none" stroke="url(#goldGradient)" stroke-width="4"/>
    
    <!-- Horizontal flourishes -->
    <path d="M80 256 Q128 216 176 256 Q128 296 80 256" fill="url(#goldGradient)"/>
    <path d="M432 256 Q384 216 336 256 Q384 296 432 256" fill="url(#goldGradient)"/>
    
    <!-- Vertical flourishes -->
    <path d="M256 80 Q216 128 256 176 Q296 128 256 80" fill="url(#goldGradient)"/>
    <path d="M256 432 Q216 384 256 336 Q296 384 256 432" fill="url(#goldGradient)"/>
    
    <!-- Corner ornaments -->
    <circle cx="176" cy="176" r="12" fill="url(#goldGradient)"/>
    <circle cx="336" cy="176" r="12" fill="url(#goldGradient)"/>
    <circle cx="176" cy="336" r="12" fill="url(#goldGradient)"/>
    <circle cx="336" cy="336" r="12" fill="url(#goldGradient)"/>
    
    <!-- Central element -->
    <circle cx="256" cy="256" r="24" fill="url(#goldGradient)"/>
    <circle cx="256" cy="256" r="16" fill="#1A1A1A"/>
    <circle cx="256" cy="256" r="8" fill="url(#goldGradient)"/>
    
    <!-- Decorative lines -->
    <line x1="176" y1="176" x2="216" y2="216" stroke="url(#goldGradient)" stroke-width="3"/>
    <line x1="336" y1="176" x2="296" y2="216" stroke="url(#goldGradient)" stroke-width="3"/>
    <line x1="176" y1="336" x2="216" y2="296" stroke="url(#goldGradient)" stroke-width="3"/>
    <line x1="336" y1="336" x2="296" y2="296" stroke="url(#goldGradient)" stroke-width="3"/>
  </g>
</svg>

