<?xml version="1.0" encoding="UTF-8"?>
<svg id="Layer_1" xmlns="http://www.w3.org/2000/svg" version="1.1" viewBox="0 0 512 512">
  <!-- Generator: Adobe Illustrator 30.2.1, SVG Export Plug-In . SVG Version: 2.1.1 Build 1)  -->
  <defs>
    <style>
      .st0 {
        fill: #c79f57;
      }

      .st1 {
        fill: #1a1a1a;
      }

      .st2 {
        fill: #f0d08b;
      }

      .st3 {
        fill: #d7b46a;
      }
    </style>
  </defs>
  <g>
    <path class="st2" d="M20.88,157.93L109.32,58.41l88.44,99.51H20.88Z"/>
    <path d="M197.76,159.93H20.88c-.79,0-1.5-.46-1.82-1.18-.32-.72-.19-1.56.33-2.15L107.82,57.08c.76-.85,2.23-.85,2.99,0l88.44,99.51c.52.59.65,1.43.33,2.15-.32.72-1.04,1.18-1.82,1.18ZM25.33,155.93h167.97L109.32,61.42,25.33,155.93Z"/>
  </g>
  <g>
    <path class="st2" d="M314.24,157.93l88.44-99.51,88.44,99.51h-176.88Z"/>
    <path d="M491.12,159.93h-176.88c-.79,0-1.5-.46-1.82-1.18-.32-.72-.19-1.56.33-2.15l88.44-99.51c.76-.85,2.23-.85,2.99,0l88.44,99.51c.52.59.65,1.43.33,2.15-.32.72-1.04,1.18-1.82,1.18ZM318.69,155.93h167.97l-83.99-94.5-83.99,94.5Z"/>
  </g>
  <g>
    <path class="st3" d="M163.07,399.6v-154.32h185.85v154.32h-185.85Z"/>
    <path d="M348.93,401.6h-185.85c-1.1,0-2-.9-2-2v-154.31c0-1.1.9-2,2-2h185.85c1.1,0,2,.9,2,2v154.31c0,1.1-.9,2-2,2ZM165.07,397.6h181.85v-150.31h-181.85v150.31Z"/>
  </g>
  <g>
    <path class="st2" d="M163.07,223.67v-21.62h34.85v21.62h29.04v-21.62h58.08v21.62h29.04v-21.62h34.85v21.62h0v21.62h-185.85v-21.62Z"/>
    <path d="M348.93,247.28h-185.85c-1.1,0-2-.9-2-2v-43.24c0-1.1.9-2,2-2h34.85c1.1,0,2,.9,2,2v19.62h25.04v-19.62c0-1.1.9-2,2-2h58.08c1.1,0,2,.9,2,2v19.62h25.04v-19.62c0-1.1.9-2,2-2h34.85c1.1,0,2,.9,2,2v43.24c0,1.1-.9,2-2,2ZM165.07,243.28h181.85v-39.24h-30.85v19.62c0,1.1-.9,2-2,2h-29.04c-1.1,0-2-.9-2-2v-19.62h-54.08v19.62c0,1.1-.9,2-2,2h-29.04c-1.1,0-2-.9-2-2v-19.62h-30.85v39.24Z"/>
  </g>
  <g>
    <path class="st1" d="M224.74,399.6v-64.47c0-17.58,13.68-31.26,31.26-31.26s31.26,13.68,31.26,31.26v64.47h-62.52Z"/>
    <path d="M287.26,401.6h-62.52c-1.1,0-2-.9-2-2v-64.47c0-18.65,14.61-33.26,33.26-33.26s33.26,14.61,33.26,33.26v64.47c0,1.1-.9,2-2,2ZM226.74,397.6h58.52v-62.47c0-16.41-12.85-29.26-29.26-29.26s-29.26,12.85-29.26,29.26v62.47Z"/>
  </g>
  <g>
    <path class="st0" d="M21.79,399.6h468.43v23.23H21.79v-23.23Z"/>
    <path d="M490.21,424.83H21.79c-1.1,0-2-.9-2-2v-23.23c0-1.1.9-2,2-2h468.43c1.1,0,2,.9,2,2v23.23c0,1.1-.9,2-2,2ZM23.79,420.83h464.43v-19.23H23.79v19.23Z"/>
  </g>
  <g>
    <rect class="st3" x="55.57" y="158.17" width="107.51" height="241.43"/>
    <path d="M163.07,401.6H55.56c-1.1,0-2-.9-2-2v-241.43c0-1.1.9-2,2-2h107.51c1.1,0,2,.9,2,2v241.43c0,1.1-.9,2-2,2ZM57.56,397.6h103.51v-237.43H57.56v237.43Z"/>
  </g>
  <g>
    <rect class="st3" x="348.93" y="157.93" width="107.51" height="241.43"/>
    <path d="M456.43,401.36h-107.51c-1.1,0-2-.9-2-2v-241.43c0-1.1.9-2,2-2h107.51c1.1,0,2,.9,2,2v241.43c0,1.1-.9,2-2,2ZM350.93,397.36h103.51v-237.43h-103.51v237.43Z"/>
  </g>
  <g>
    <path class="st1" d="M402.68,187.18h0c5.77,0,10.45,4.68,10.45,10.45v6.96c0,5.77-4.68,10.45-10.45,10.45h0c-5.77,0-10.45-4.68-10.45-10.45v-6.96c0-5.77,4.68-10.45,10.45-10.45Z"/>
    <path d="M402.68,217.04c-6.86,0-12.45-5.58-12.45-12.45v-6.96c0-6.86,5.58-12.45,12.45-12.45s12.45,5.58,12.45,12.45v6.96c0,6.86-5.58,12.45-12.45,12.45ZM402.68,189.18c-4.66,0-8.45,3.79-8.45,8.45v6.96c0,4.66,3.79,8.45,8.45,8.45s8.45-3.79,8.45-8.45v-6.96c0-4.66-3.79-8.45-8.45-8.45Z"/>
  </g>
  <g>
    <path class="st1" d="M109.32,187.18h0c5.77,0,10.45,4.68,10.45,10.45v6.96c0,5.77-4.68,10.45-10.45,10.45h0c-5.77,0-10.45-4.68-10.45-10.45v-6.96c0-5.77,4.68-10.45,10.45-10.45Z"/>
    <path d="M109.32,217.04c-6.86,0-12.45-5.58-12.45-12.45v-6.96c0-6.86,5.58-12.45,12.45-12.45s12.45,5.58,12.45,12.45v6.96c0,6.86-5.58,12.45-12.45,12.45ZM109.32,189.18c-4.66,0-8.45,3.79-8.45,8.45v6.96c0,4.66,3.79,8.45,8.45,8.45s8.45-3.79,8.45-8.45v-6.96c0-4.66-3.79-8.45-8.45-8.45Z"/>
  </g>
  <g>
    <g>
      <path class="st1" d="M217.69,268.49h0c5.77,0,10.45,4.68,10.45,10.45v6.96c0,5.77-4.68,10.45-10.45,10.45h0c-5.77,0-10.45-4.68-10.45-10.45v-6.96c0-5.77,4.68-10.45,10.45-10.45Z"/>
      <path d="M217.69,298.35c-6.86,0-12.45-5.58-12.45-12.45v-6.96c0-6.86,5.58-12.45,12.45-12.45s12.45,5.58,12.45,12.45v6.96c0,6.86-5.58,12.45-12.45,12.45ZM217.69,270.49c-4.66,0-8.45,3.79-8.45,8.45v6.96c0,4.66,3.79,8.45,8.45,8.45s8.45-3.79,8.45-8.45v-6.96c0-4.66-3.79-8.45-8.45-8.45Z"/>
    </g>
    <g>
      <path class="st1" d="M294.31,268.49h0c5.77,0,10.45,4.68,10.45,10.45v6.96c0,5.77-4.68,10.45-10.45,10.45h0c-5.77,0-10.45-4.68-10.45-10.45v-6.96c0-5.77,4.68-10.45,10.45-10.45Z"/>
      <path d="M294.31,298.35c-6.86,0-12.45-5.58-12.45-12.45v-6.96c0-6.86,5.58-12.45,12.45-12.45s12.45,5.58,12.45,12.45v6.96c0,6.86-5.58,12.45-12.45,12.45ZM294.31,270.49c-4.66,0-8.45,3.79-8.45,8.45v6.96c0,4.66,3.79,8.45,8.45,8.45s8.45-3.79,8.45-8.45v-6.96c0-4.66-3.79-8.45-8.45-8.45Z"/>
    </g>
  </g>
</svg>