<?xml version="1.0" encoding="UTF-8"?>
<svg id="Layer_1" data-name="Layer 1" xmlns="http://www.w3.org/2000/svg" viewBox="0 0 243.13 187.38">
  <defs>
    <style>
      .cls-1, .cls-2, .cls-3, .cls-4, .cls-5, .cls-6, .cls-7 {
        stroke: #524c45;
      }

      .cls-1, .cls-2, .cls-3, .cls-4, .cls-5, .cls-6, .cls-7, .cls-8 {
        stroke-miterlimit: 10;
      }

      .cls-1, .cls-2, .cls-3, .cls-6, .cls-7, .cls-8 {
        fill: none;
      }

      .cls-1, .cls-2, .cls-4, .cls-8 {
        stroke-width: 3px;
      }

      .cls-2, .cls-8 {
        stroke-linecap: round;
      }

      .cls-3 {
        stroke-width: 1.92px;
      }

      .cls-4, .cls-5, .cls-9 {
        fill: #524c45;
      }

      .cls-5 {
        stroke-width: 1.58px;
      }

      .cls-6 {
        stroke-width: 2px;
      }

      .cls-7 {
        stroke-width: 1.41px;
      }

      .cls-8 {
        stroke: #524c45;
      }
    </style>
  </defs>
  <line class="cls-8" x1="48.96" y1="46.25" x2="194.17" y2="46.25"/>
  <rect class="cls-1" x="15.08" y="44.58" width="32.82" height="64.34"/>
  <rect class="cls-1" x="195.22" y="44.58" width="32.82" height="64.34"/>
  <rect class="cls-1" x="47.9" y="44.58" width="147.32" height="64.34"/>
  <rect class="cls-6" x="93.89" y="62.85" width="55.34" height="46.07"/>
  <line class="cls-2" x1="11.07" y1="44.58" x2="51.92" y2="44.58"/>
  <polygon class="cls-1" points="31.49 16.63 14.03 44.58 48.96 44.58 31.49 16.63"/>
  <line class="cls-2" x1="191.21" y1="44.58" x2="232.06" y2="44.58"/>
  <polygon class="cls-1" points="211.64 16.63 194.17 44.58 229.1 44.58 211.64 16.63"/>
  <polygon class="cls-9" points="29.69 16.63 31.49 1.29 33.3 16.63 29.69 16.63 29.69 16.63"/>
  <polygon class="cls-9" points="209.83 16.63 211.64 1.29 213.44 16.63 209.83 16.63 209.83 16.63"/>
  <ellipse class="cls-9" cx="31.49" cy="9.41" rx="3.89" ry="3.25"/>
  <ellipse class="cls-9" cx="211.64" cy="9.41" rx="3.3" ry="2.75"/>
  <path class="cls-6" d="M120.27,88.96h2.59c3.27,0,5.92,2.65,5.92,5.92v14.05h-14.43v-14.05c0-3.27,2.65-5.92,5.92-5.92Z"/>
  <rect class="cls-6" x="89.06" y="50.95" width="6.8" height="5.87"/>
  <rect class="cls-6" x="103.61" y="50.95" width="6.8" height="5.87"/>
  <rect class="cls-6" x="118.16" y="50.95" width="6.8" height="5.87"/>
  <rect class="cls-6" x="132.72" y="50.95" width="6.8" height="5.87"/>
  <rect class="cls-6" x="147.27" y="50.95" width="6.8" height="5.87"/>
  <rect class="cls-6" x="59.96" y="90.64" width="6.8" height="8.3"/>
  <rect class="cls-6" x="74.51" y="90.64" width="6.8" height="8.3"/>
  <rect class="cls-6" x="59.96" y="50.95" width="6.8" height="5.87"/>
  <rect class="cls-6" x="74.51" y="50.95" width="6.8" height="5.87"/>
  <rect class="cls-6" x="59.96" y="68.72" width="6.8" height="11.94"/>
  <rect class="cls-6" x="74.51" y="68.72" width="6.8" height="11.94"/>
  <g>
    <rect class="cls-6" x="114.77" y="68.72" width="6.8" height="11.94"/>
    <rect class="cls-6" x="121.56" y="68.72" width="6.8" height="11.94"/>
  </g>
  <rect class="cls-6" x="161.82" y="90.64" width="6.8" height="8.3"/>
  <rect class="cls-6" x="176.37" y="90.64" width="6.8" height="8.3"/>
  <rect class="cls-6" x="161.82" y="50.95" width="6.8" height="5.87"/>
  <rect class="cls-6" x="176.37" y="50.95" width="6.8" height="5.87"/>
  <rect class="cls-6" x="161.82" y="68.72" width="6.8" height="11.94"/>
  <rect class="cls-6" x="176.37" y="68.72" width="6.8" height="11.94"/>
  <g>
    <rect class="cls-6" x="28.09" y="68.72" width="6.8" height="11.94"/>
    <rect class="cls-3" x="29.03" y="90.64" width="4.92" height="8.3"/>
    <ellipse class="cls-4" cx="31.49" cy="57.55" rx="3.29" ry="1.72"/>
  </g>
  <g>
    <rect class="cls-6" x="208.24" y="68.72" width="6.8" height="11.94"/>
    <rect class="cls-3" x="209.17" y="90.64" width="4.92" height="8.3"/>
    <ellipse class="cls-4" cx="211.64" cy="57.55" rx="3.29" ry="1.72"/>
  </g>
  <g>
    <rect class="cls-6" x="15.08" y="104.32" width="2.49" height="3.16" transform="translate(32.65 211.81) rotate(180)"/>
    <rect class="cls-6" x="15.08" y="95.23" width="2.49" height="3.16" transform="translate(32.65 193.62) rotate(180)"/>
    <rect class="cls-6" x="15.08" y="86.13" width="2.49" height="3.16" transform="translate(32.65 175.42) rotate(180)"/>
    <rect class="cls-6" x="15.08" y="77.04" width="2.49" height="3.16" transform="translate(32.65 157.23) rotate(180)"/>
    <rect class="cls-6" x="15.08" y="67.94" width="2.49" height="3.16" transform="translate(32.65 139.04) rotate(180)"/>
    <rect class="cls-6" x="15.08" y="59.23" width="2.49" height="3.16" transform="translate(32.65 121.62) rotate(180)"/>
    <rect class="cls-7" x="15.7" y="99.78" width="1.24" height="3.16" transform="translate(32.65 202.71) rotate(180)"/>
    <rect class="cls-7" x="15.7" y="81.58" width="1.24" height="3.16" transform="translate(32.65 166.33) rotate(180)"/>
    <rect class="cls-7" x="15.7" y="72.49" width="1.24" height="3.16" transform="translate(32.65 148.14) rotate(180)"/>
    <rect class="cls-7" x="15.7" y="63.39" width="1.24" height="3.16" transform="translate(32.65 129.95) rotate(180)"/>
    <rect class="cls-7" x="15.7" y="90.68" width="1.24" height="3.16" transform="translate(32.65 184.52) rotate(180)"/>
  </g>
  <g>
    <rect class="cls-6" x="45.41" y="105.07" width="2.49" height="3.16" transform="translate(93.32 213.31) rotate(180)"/>
    <rect class="cls-6" x="45.41" y="95.98" width="2.49" height="3.16" transform="translate(93.32 195.12) rotate(180)"/>
    <rect class="cls-6" x="45.41" y="86.88" width="2.49" height="3.16" transform="translate(93.32 176.92) rotate(180)"/>
    <rect class="cls-6" x="45.41" y="77.79" width="2.49" height="3.16" transform="translate(93.32 158.73) rotate(180)"/>
    <rect class="cls-6" x="45.41" y="68.69" width="2.49" height="3.16" transform="translate(93.32 140.54) rotate(180)"/>
    <rect class="cls-6" x="45.41" y="59.98" width="2.49" height="3.16" transform="translate(93.32 123.12) rotate(180)"/>
    <rect class="cls-7" x="46.04" y="100.53" width="1.24" height="3.16" transform="translate(93.32 204.21) rotate(180)"/>
    <rect class="cls-7" x="46.04" y="82.33" width="1.24" height="3.16" transform="translate(93.32 167.83) rotate(180)"/>
    <rect class="cls-7" x="46.04" y="73.24" width="1.24" height="3.16" transform="translate(93.32 149.64) rotate(180)"/>
    <rect class="cls-7" x="46.04" y="64.14" width="1.24" height="3.16" transform="translate(93.32 131.45) rotate(180)"/>
    <rect class="cls-7" x="46.04" y="91.43" width="1.24" height="3.16" transform="translate(93.32 186.02) rotate(180)"/>
  </g>
  <g>
    <rect class="cls-6" x="195.22" y="104.69" width="2.49" height="3.16" transform="translate(392.94 212.54) rotate(180)"/>
    <rect class="cls-6" x="195.22" y="95.59" width="2.49" height="3.16" transform="translate(392.94 194.35) rotate(180)"/>
    <rect class="cls-6" x="195.22" y="86.5" width="2.49" height="3.16" transform="translate(392.94 176.15) rotate(180)"/>
    <rect class="cls-6" x="195.22" y="77.4" width="2.49" height="3.16" transform="translate(392.94 157.96) rotate(180)"/>
    <rect class="cls-6" x="195.22" y="68.31" width="2.49" height="3.16" transform="translate(392.94 139.77) rotate(180)"/>
    <rect class="cls-6" x="195.22" y="59.6" width="2.49" height="3.16" transform="translate(392.94 122.35) rotate(180)"/>
    <rect class="cls-7" x="195.85" y="100.14" width="1.24" height="3.16" transform="translate(392.94 203.44) rotate(180)"/>
    <rect class="cls-7" x="195.85" y="81.95" width="1.24" height="3.16" transform="translate(392.94 167.06) rotate(180)"/>
    <rect class="cls-7" x="195.85" y="72.85" width="1.24" height="3.16" transform="translate(392.94 148.87) rotate(180)"/>
    <rect class="cls-7" x="195.85" y="63.76" width="1.24" height="3.16" transform="translate(392.94 130.68) rotate(180)"/>
    <rect class="cls-7" x="195.85" y="91.05" width="1.24" height="3.16" transform="translate(392.94 185.25) rotate(180)"/>
  </g>
  <g>
    <rect class="cls-6" x="225.56" y="105.44" width="2.49" height="3.16" transform="translate(453.61 214.04) rotate(180)"/>
    <rect class="cls-6" x="225.56" y="96.34" width="2.49" height="3.16" transform="translate(453.61 195.85) rotate(180)"/>
    <rect class="cls-6" x="225.56" y="87.25" width="2.49" height="3.16" transform="translate(453.61 177.65) rotate(180)"/>
    <rect class="cls-6" x="225.56" y="78.15" width="2.49" height="3.16" transform="translate(453.61 159.46) rotate(180)"/>
    <rect class="cls-6" x="225.56" y="69.06" width="2.49" height="3.16" transform="translate(453.61 141.27) rotate(180)"/>
    <rect class="cls-6" x="225.56" y="60.35" width="2.49" height="3.16" transform="translate(453.61 123.85) rotate(180)"/>
    <rect class="cls-7" x="226.18" y="100.89" width="1.24" height="3.16" transform="translate(453.61 204.94) rotate(180)"/>
    <rect class="cls-7" x="226.18" y="82.7" width="1.24" height="3.16" transform="translate(453.61 168.56) rotate(180)"/>
    <rect class="cls-7" x="226.18" y="73.6" width="1.24" height="3.16" transform="translate(453.61 150.37) rotate(180)"/>
    <rect class="cls-7" x="226.18" y="64.51" width="1.24" height="3.16" transform="translate(453.61 132.18) rotate(180)"/>
    <rect class="cls-7" x="226.18" y="91.8" width="1.24" height="3.16" transform="translate(453.61 186.75) rotate(180)"/>
  </g>
  <ellipse class="cls-5" cx="31.49" cy="3.88" rx=".54" ry="3.09"/>
  <ellipse class="cls-5" cx="211.64" cy="3.88" rx=".54" ry="3.09"/>
  <line class="cls-2" x1="1.5" y1="108.92" x2="241.63" y2="108.92"/>
  <line class="cls-6" x1="121.56" y1="108.43" x2="121.56" y2="88.96"/>
  <g>
    <path class="cls-9" d="M48.97,138.2c1.1-.73,1.96-1.43,2.59-2.09.63-.66,1.62-1.72,2.98-3.18,1.35-1.46,2.16-2.43,2.42-2.91.27-.48.4-.83.4-1.04,0-.26-.15-.49-.45-.7s-.65-.35-1.06-.42c-.45-.07-.68-.2-.68-.39,0-.2.19-.31.56-.31.08,0,.2,0,.37-.02.42-.02,1.67-.03,3.76-.03,1.44,0,2.44.01,3,.04s.85.13.85.31c0,.19-.16.31-.47.36-1.05.15-1.96.43-2.74.86s-1.98,1.42-3.6,2.98c-1.63,1.57-3.03,3.08-4.21,4.55,1.31,0,2.41.18,3.3.55s1.63,1,2.22,1.9,1.1,2.42,1.53,4.58c.75,3.61,2.09,5.5,4.02,5.65.43.03.65.15.65.35,0,.17-.1.25-.31.25l-1.56-.03c-2.31,0-3.63.02-3.97.07-.55-.73-.91-1.46-1.08-2.17-.16-.71-.39-1.96-.67-3.75-.25-1.56-.66-3-1.23-4.32-.57-1.32-1.46-1.98-2.67-1.98-.8,0-1.63.26-2.49.79-.86.53-1.36.92-1.49,1.17-.14.25-.2,1.75-.2,4.49,0,1.92.06,3.11.18,3.56.12.45.38.81.78,1.07.4.26.94.42,1.62.49.41.04.61.17.61.37,0,.19-.14.29-.42.29h-.2c-.32-.03-1.47-.03-3.46-.03-2.4,0-3.75.02-4.07.07-.16.02-.28.03-.36.03-.26,0-.39-.1-.39-.3,0-.18.16-.29.47-.34.6-.08,1.05-.25,1.35-.5.3-.25.49-.55.58-.88.08-.33.2-1.45.34-3.35.14-1.9.21-3.48.21-4.75,0-1.67-.02-3.09-.05-4.26-.03-1.16-.1-2.43-.2-3.81-.1-1.37-.21-2.2-.34-2.48-.12-.28-.3-.49-.53-.64-.23-.15-.76-.28-1.59-.38-.28-.03-.42-.14-.42-.31,0-.25.26-.37.78-.37l1.37-.02,6.02-.07c.3,0,.46.09.46.28,0,.11-.05.19-.15.24-.1.05-.41.11-.93.17-.53.07-.86.13-1,.2s-.27.21-.41.44c-.13.23-.2.61-.2,1.14,0,1.28.06,4.14.19,8.58Z"/>
    <path class="cls-9" d="M78.1,126.86h.78c1.26,2.59,3,7.01,5.22,13.28,1.43,4.01,2.41,6.47,2.95,7.38.53.91,1.39,1.42,2.57,1.52.37.03.56.16.56.37,0,.16-.1.24-.29.24l-.24-.02c-1.04-.09-2.36-.14-3.97-.14-2.46,0-4.05.04-4.75.12-.35,0-.53-.1-.53-.31,0-.15.13-.24.39-.27.96-.09,1.62-.25,1.99-.49s.55-.61.55-1.12-.34-1.7-1.03-3.65l-1-2.92c-.59,0-3.22.03-7.88.1-1.18,3.13-1.77,5.11-1.77,5.92,0,.69.29,1.21.87,1.54.58.34,1.16.52,1.72.55.42.03.63.16.63.38,0,.09-.07.17-.2.25-1.81-.08-2.9-.12-3.27-.12-1.9,0-3.18.02-3.83.07-.36,0-.54-.1-.54-.31,0-.18.16-.29.47-.34,1.3-.17,2.29-1.05,2.98-2.65s1.76-4.46,3.22-8.6c1.33-3.76,2.79-7.37,4.38-10.82ZM77.43,130.55c-1.05,2.15-2.28,5.27-3.68,9.36,1.16-.06,2-.08,2.51-.08l4.76.08c-.42-1.18-1-2.74-1.76-4.68-.93-2.32-1.54-3.88-1.83-4.68Z"/>
    <path class="cls-9" d="M106.2,128.5c.31-.31.51-.62.61-.95.09-.27.22-.41.39-.41.09,0,.19.06.31.17.08.41.19,1.23.34,2.46l.41,3.19c0,.2-.12.31-.37.31-.14,0-.25-.11-.36-.34-.6-1.48-1.49-2.71-2.66-3.7-1.17-.97-2.46-1.46-3.85-1.46s-2.4.41-3.09,1.24c-.7.83-1.04,1.7-1.04,2.63,0,1.13.38,2,1.14,2.59.76.6,2.32,1.28,4.68,2.04,1.74.54,3.04,1.07,3.91,1.58.87.51,1.59,1.22,2.18,2.14.59.92.88,1.9.88,2.95,0,1.79-.74,3.39-2.22,4.8-1.48,1.41-3.3,2.12-5.44,2.12-1.93,0-3.88-.6-5.83-1.81-.38.32-.63.69-.75,1.12-.09.36-.24.54-.44.54-.18,0-.31-.23-.39-.7-.08-.46-.24-2.66-.49-6.58.04-.14.16-.2.36-.2.17,0,.31.12.41.37,1.74,4.37,4.17,6.56,7.29,6.56,1.55,0,2.76-.47,3.64-1.4s1.31-2,1.31-3.21c0-.84-.23-1.61-.7-2.31-.47-.7-1.09-1.27-1.87-1.7s-2-.91-3.67-1.44c-2.15-.69-3.61-1.34-4.38-1.96s-1.34-1.31-1.7-2.09c-.36-.77-.54-1.52-.54-2.25,0-1.5.68-2.84,2.04-4,1.36-1.16,3.03-1.75,5.01-1.75.75,0,1.53.12,2.35.36.82.24,1.68.6,2.57,1.09ZM102.76,126.23h-1.88l-3.11-5.5c-.27-.5-.41-.79-.41-.88,0-.19.08-.29.24-.29.09,0,.25.12.47.36l3.69,3.82,3.39-3.47c.16-.17.28-.3.35-.39.18-.2.33-.3.44-.3.18,0,.27.08.27.25,0,.1-.16.44-.47,1.01l-2.98,5.38Z"/>
    <path class="cls-9" d="M123.35,128.23c-.88-.04-1.5-.07-1.87-.07-2.44,0-4.21.51-5.31,1.53-1.1,1.02-1.74,1.93-1.92,2.72-.06.28-.21.43-.46.43-.11,0-.22-.05-.32-.16.06-1.35.28-3.16.66-5.45.54-.01.89-.02,1.03-.02.88,0,2.06.04,3.54.14,1.59.09,4.04.14,7.33.14s5.56-.04,6.58-.12c.93-.09,2.2-.14,3.82-.14.14.81.23,1.66.27,2.54.07,1.01.13,1.71.2,2.12.01.09.02.19.02.29,0,.27-.12.41-.35.41-.15,0-.27-.05-.36-.14-.1-.1-.31-.42-.65-.96-.59-.92-1.2-1.61-1.83-2.08-.63-.47-1.34-.77-2.12-.91-.78-.14-2.36-.23-4.73-.27-.14,1.71-.2,3.66-.2,5.85,0,7.26.16,11.54.47,12.83.31,1.3,1.42,1.95,3.33,1.95.46,0,.7.1.7.29,0,.23-.22.34-.66.34h-10.43c-.27,0-.41-.11-.41-.32s.27-.32.8-.32c.89,0,1.61-.25,2.16-.75.55-.5.87-1.18.95-2.04.08-.86.13-3.34.13-7.44,0-3.5-.12-6.96-.36-10.38Z"/>
    <path class="cls-9" d="M141.95,127.13l3.09.07,4.74-.07c.57,0,.85.11.85.34,0,.17-.15.28-.46.32-1.25.16-2.04.61-2.35,1.36s-.47,3.5-.47,8.27c0,1.75.04,3.72.13,5.92.09,2.19.19,3.5.31,3.93s.33.78.64,1.05.9.46,1.76.58c.28.03.42.14.42.32,0,.2-.13.31-.39.31l-4.21-.03-3.58.05c-.4,0-.59-.11-.59-.34s.16-.36.47-.36c1.05-.02,1.67-.37,1.85-1.05.18-.68.27-2.84.27-6.49s-.03-6.38-.09-8.56c-.06-2.18-.25-3.52-.55-4-.31-.49-.88-.79-1.73-.92-.32-.06-.48-.19-.48-.39s.12-.31.36-.31Z"/>
    <path class="cls-9" d="M173.88,127.5c.33,1.27.65,3.04.97,5.32-.05.09-.12.14-.18.14-.08,0-.16-.04-.25-.14-.78-1.25-1.53-2.21-2.24-2.87-.71-.66-1.43-1.12-2.15-1.4-.72-.28-1.95-.42-3.71-.42-1.65,0-2.96.1-3.92.29-.09.11-.14.32-.14.63,0,.08-.01.22-.03.42-.11.9-.17,3.35-.17,7.34,0,.17.01.41.03.71.86.03,1.45.05,1.76.05,1.43,0,2.46-.21,3.1-.64.64-.43,1.2-1.34,1.67-2.75.08-.24.19-.36.34-.36.21,0,.32.16.32.49l-.07.68c-.09.9-.14,1.82-.14,2.77,0,1.54.03,2.93.08,4.16,0,.38-.1.58-.31.58-.15,0-.26-.13-.31-.41-.24-1.33-.74-2.29-1.5-2.88s-2.41-.88-4.95-.88c-.03.83-.05,2.16-.05,4,0,2.38.08,3.9.25,4.54.17.64.58,1.16,1.22,1.53.65.38,1.74.57,3.27.57,4.4,0,7.24-1.51,8.52-4.54.16-.37.32-.56.49-.56.18,0,.27.12.27.37,0,.14-.03.28-.08.44-.07.21-.23,1.02-.49,2.41-.06.29-.27,1.18-.64,2.64l-7.1-.02c-1.02,0-2.51-.04-4.49-.13-1.97-.08-3.72-.13-5.24-.13-1.52,0-2.31-.04-2.38-.09-.07-.06-.1-.12-.1-.19,0-.23.19-.34.56-.34,1.25,0,2.08-.33,2.48-1,.4-.67.59-2.29.59-4.86l-.02-3.47.05-3.25c0-.65-.04-1.89-.11-3.72s-.14-2.87-.2-3.13c-.06-.26-.24-.52-.53-.77-.29-.25-.92-.51-1.91-.77-.29-.08-.44-.2-.44-.37,0-.2.2-.31.59-.31l3.46.19c1.22.06,4.22.08,9,.08,3.14,0,4.75,0,4.82.02Z"/>
    <path class="cls-9" d="M199.16,149.58c-.55.02-.87.03-.95.03-.42,0-1.18-.02-2.27-.06-1.1-.04-3.38-.06-6.84-.06h-4.31c-.16,0-.74.03-1.73.08-1,.06-1.6.08-1.82.08-.86,0-1.29-.11-1.29-.34,0-.18.17-.28.51-.29,1.1-.07,1.86-.3,2.29-.7.43-.4.72-.98.88-1.73.16-.75.24-2.79.24-6.1l.02-6.07c0-1.97-.09-3.34-.26-4.12-.17-.78-.54-1.38-1.08-1.79-.55-.41-1.17-.65-1.86-.7-.36-.03-.54-.16-.54-.37s.16-.31.49-.31c.08,0,.23,0,.44.02,1.8.11,3.9.17,6.31.17l2.98-.05c.3,0,.46.11.46.34,0,.2-.16.31-.49.31-.8,0-1.47.16-2.01.47-.54.32-.89.68-1.07,1.09-.18.41-.26,1.22-.26,2.42l-.14,8.02.03,4.48c0,1.39.06,2.29.18,2.71.12.42.36.79.74,1.13s1.05.5,2.04.5c.08,0,1.09-.03,3.04-.1,1.55-.21,2.94-.97,4.17-2.27,1.23-1.3,2.05-2.46,2.46-3.49.12-.29.28-.44.46-.44.19,0,.29.14.29.41,0,.32-.16,1.45-.48,3.4-.32,1.95-.52,3.07-.6,3.35Z"/>
  </g>
  <g>
    <path class="cls-9" d="M60.4,175.03c2.1.55,3.68,1.33,4.72,2.32,1.05,1,1.57,2.21,1.57,3.63,0,1.53-.65,2.94-1.95,4.22-1.3,1.3-3.21,1.95-5.73,1.95-.47,0-1.23-.03-2.27-.08-.67-.03-1.03-.05-1.08-.05-3.48,0-5.83.03-7.05.1-.41,0-.61-.11-.61-.32,0-.11.06-.19.18-.24.12-.04.56-.13,1.31-.27.45-.08.81-.27,1.07-.58.26-.3.46-.93.59-1.86.13-.94.2-2.33.2-4.19s.02-3.31.07-4.43c.04-1.12.07-1.99.07-2.59,0-1.87-.07-3.36-.21-4.49-.14-1.13-.34-1.85-.6-2.16-.26-.31-.79-.53-1.59-.65-.33-.04-.49-.16-.49-.36,0-.2.16-.31.49-.31l3.09.05c1.01,0,1.95-.02,2.83-.07,1.98-.1,3.25-.15,3.83-.15,2.09,0,3.75.46,4.99,1.37,1.22.92,1.83,2.16,1.83,3.74,0,1.24-.4,2.31-1.2,3.2-.8.89-2.15,1.63-4.04,2.2ZM54.58,175.82c-.16.28-.24.77-.24,1.47l-.12,5.26c0,1.85.05,2.89.14,3.1s.42.4.98.54c.56.15,1.44.22,2.65.22,1.07,0,1.95-.15,2.62-.45.67-.3,1.29-.89,1.86-1.77s.85-1.94.85-3.17c0-1.83-.54-3.18-1.62-4.04s-2.68-1.29-4.79-1.29c-.71,0-1.49.04-2.34.12ZM54.58,165.71c-.1,2.48-.15,4.48-.15,6.02l.02,2.51c0,.34.05.55.14.64.1.09.36.14.79.14,2.15,0,3.87-.39,5.17-1.18,1.3-.79,1.95-2.1,1.95-3.96,0-1.57-.48-2.74-1.45-3.52s-2.17-1.16-3.6-1.16c-.84,0-1.79.17-2.87.51Z"/>
    <path class="cls-9" d="M71.56,175.78c0-1.53.46-3.2,1.39-5.03.93-1.83,2.28-3.33,4.06-4.52,1.78-1.19,3.79-1.78,6.03-1.78,3.13,0,5.72,1.12,7.76,3.36,2.04,2.24,3.06,4.79,3.06,7.66,0,3.05-1.13,5.79-3.39,8.21-2.26,2.42-4.98,3.64-8.16,3.64s-5.59-1.06-7.65-3.19c-2.06-2.12-3.1-4.91-3.1-8.36ZM75.34,175.23c0,1.84.28,3.74.85,5.68.56,1.94,1.45,3.35,2.66,4.22,1.21.88,2.5,1.32,3.88,1.32,2.22,0,4-1.08,5.34-3.25,1.34-2.17,2.01-4.67,2.01-7.53s-.68-5.18-2.05-7.27c-1.37-2.09-3.15-3.13-5.35-3.13-1.66,0-3.04.56-4.15,1.67-1.11,1.11-1.91,2.45-2.42,4-.51,1.55-.76,2.98-.76,4.29Z"/>
    <path class="cls-9" d="M110.76,166.03c.3-.3.51-.62.61-.95.09-.27.22-.41.39-.41.09,0,.19.06.3.17.08.41.19,1.23.34,2.46l.41,3.19c0,.2-.12.31-.37.31-.13,0-.25-.11-.36-.34-.6-1.48-1.49-2.71-2.66-3.7-1.18-.97-2.46-1.46-3.85-1.46s-2.4.41-3.09,1.24-1.04,1.7-1.04,2.63c0,1.13.38,2,1.14,2.59.76.6,2.32,1.28,4.68,2.04,1.74.54,3.04,1.07,3.91,1.58.86.51,1.59,1.22,2.18,2.14.59.92.88,1.9.88,2.95,0,1.79-.74,3.39-2.22,4.8-1.48,1.41-3.3,2.12-5.44,2.12-1.93,0-3.88-.6-5.83-1.81-.38.32-.63.69-.75,1.12-.09.36-.24.54-.44.54-.18,0-.31-.23-.39-.7-.08-.46-.24-2.66-.49-6.58.04-.14.16-.2.36-.2.17,0,.3.12.41.37,1.74,4.37,4.17,6.56,7.29,6.56,1.55,0,2.76-.47,3.64-1.4s1.31-2,1.31-3.21c0-.84-.24-1.61-.7-2.31-.47-.7-1.09-1.27-1.87-1.7s-2-.91-3.67-1.44c-2.15-.69-3.61-1.34-4.38-1.96s-1.34-1.31-1.7-2.09c-.36-.77-.54-1.52-.54-2.25,0-1.5.68-2.84,2.04-4,1.36-1.16,3.03-1.75,5.01-1.75.75,0,1.53.12,2.35.36s1.68.6,2.57,1.08ZM107.32,163.76h-1.88l-3.11-5.5c-.27-.5-.41-.79-.41-.88,0-.19.08-.29.24-.29.09,0,.25.12.47.36l3.69,3.82,3.39-3.47c.16-.17.28-.3.35-.39.18-.2.33-.3.44-.3.18,0,.27.08.27.25,0,.1-.16.44-.47,1.01l-2.98,5.38Z"/>
    <path class="cls-9" d="M128.44,164.39h.78c1.26,2.59,3,7.01,5.22,13.28,1.43,4.01,2.41,6.47,2.95,7.38.53.91,1.39,1.42,2.57,1.52.38.03.56.16.56.37,0,.16-.1.24-.29.24l-.24-.02c-1.04-.09-2.36-.14-3.97-.14-2.46,0-4.05.04-4.75.12-.35,0-.53-.1-.53-.31,0-.15.13-.24.39-.27.96-.09,1.62-.25,1.99-.49s.55-.61.55-1.12-.34-1.7-1.03-3.65l-1-2.92c-.59,0-3.22.03-7.88.1-1.18,3.13-1.77,5.11-1.77,5.92,0,.69.29,1.21.87,1.54.58.34,1.16.52,1.72.55.42.03.63.16.63.38,0,.09-.07.17-.2.25-1.81-.08-2.9-.12-3.27-.12-1.9,0-3.18.02-3.83.07-.36,0-.54-.1-.54-.31,0-.18.16-.29.47-.34,1.3-.17,2.29-1.05,2.98-2.65s1.76-4.46,3.22-8.6c1.34-3.76,2.79-7.37,4.38-10.82ZM127.77,168.09c-1.05,2.15-2.28,5.27-3.68,9.36,1.16-.06,2-.08,2.51-.08l4.77.08c-.42-1.18-1.01-2.74-1.76-4.68-.93-2.32-1.54-3.88-1.83-4.68Z"/>
    <path class="cls-9" d="M149.28,164.95c.68.92,1.85,2.33,3.53,4.26l5.43,6.29,5.22,6.04c.11-2.05.17-4.7.17-7.97,0-2.45-.05-4.09-.15-4.93-.1-.83-.48-1.53-1.13-2.09s-1.46-.85-2.43-.85c-.45,0-.68-.1-.68-.29,0-.11.05-.2.14-.25s.86-.1,2.28-.15c1.42-.05,2.62-.08,3.59-.08l2.29.02h.37c.35,0,.53.1.53.3,0,.18-.15.28-.46.31-1.14.12-1.96.42-2.47.89s-.8,1.15-.9,2.03c-.1.88-.14,3.85-.14,8.91l-.17,8.96c0,.45-.11.68-.33.68-.06,0-.14-.03-.23-.08-.1-.05-.61-.62-1.52-1.71s-2.04-2.4-3.38-3.93c-1.34-1.53-2.39-2.76-3.16-3.71-1.68-2.05-2.75-3.31-3.19-3.78-1.64-1.74-2.61-2.86-2.9-3.36-.19-.34-.37-.51-.53-.51-.12,0-.19.22-.19.66l.03,2.63c0,3.33.09,6,.27,7.99.18,1.99.37,3.16.57,3.5s.54.69,1.04,1.04c.49.35,1.01.53,1.57.53.75,0,1.12.14,1.12.41,0,.2-.21.31-.63.31l-8.16-.02c-.38,0-.58-.1-.58-.29,0-.23.19-.34.56-.34,1.39,0,2.32-.31,2.78-.92.46-.62.7-1.92.7-3.92l-.14-5.95c0-3.51-.09-5.59-.28-6.21-.19-.63-.62-1.39-1.3-2.29-.67-.9-1.44-1.4-2.3-1.52-.38-.05-.58-.15-.58-.31,0-.21.25-.32.75-.32l4.99.03Z"/>
    <path class="cls-9" d="M184.15,175.43c.63-.7,1.6-1.97,2.89-3.8,1.29-1.83,2.06-2.97,2.29-3.42.23-.45.35-.8.35-1.06,0-.46-.23-.83-.7-1.11-.47-.28-.95-.42-1.43-.42-.38,0-.58-.1-.58-.3,0-.21.32-.32.97-.32h6.39c.59,0,.88.12.88.36,0,.19-.13.29-.39.29-.67,0-1.31.15-1.93.46-.62.31-1.36.99-2.25,2.05l-2.95,3.98c-1.55,2.08-2.39,3.3-2.51,3.66-.18.53-.27,1.94-.27,4.22,0,3.03.13,4.83.38,5.39.25.57,1.08.91,2.47,1.03.36.03.54.15.54.34,0,.23-.2.34-.59.34l-4.57-.1c-1.1,0-2,.02-2.7.07-.57.04-.93.07-1.09.07-.43,0-.64-.11-.64-.34,0-.18.16-.28.48-.29,1.09-.04,1.82-.45,2.18-1.22s.55-1.91.55-3.41c0-1.65-.1-2.98-.31-4-.04-.26-.53-1.18-1.46-2.77s-2.06-3.35-3.4-5.27c-1.34-1.93-2.3-3.1-2.87-3.52-.58-.42-1.14-.65-1.68-.7-.41-.03-.61-.15-.61-.34,0-.12.05-.21.16-.25.11-.04.43-.06.96-.06h7.41c.51,0,.81.02.92.05s.15.12.15.27c0,.18-.14.28-.42.3-1.42.11-2.14.54-2.14,1.29,0,.38.26.99.78,1.81s2.1,3.06,4.75,6.7Z"/>
  </g>
  <path class="cls-9" d="M192.64,134.1v-.72c1.15-.36,2.05-.94,2.68-1.72.63-.79.95-1.62.95-2.5,0-.22-.05-.4-.15-.53-.09-.1-.17-.15-.24-.15-.12,0-.39.1-.81.31-.2.11-.42.17-.64.17-.55,0-.99-.16-1.31-.48-.33-.32-.49-.76-.49-1.32s.21-1,.63-1.38c.42-.38.93-.58,1.54-.58.74,0,1.4.32,1.98.95s.87,1.46.87,2.5c0,1.13-.4,2.18-1.2,3.16-.8.97-2.07,1.74-3.81,2.3Z"/>
</svg>